<?xml version="1.0" encoding="utf-8"?>
<!-- Generator: Adobe Illustrator 16.0.0, SVG Export Plug-In . SVG Version: 6.00 Build 0)  -->
<svg version="1.2" baseProfile="tiny" id="Capa_1" xmlns="http://www.w3.org/2000/svg" xmlns:xlink="http://www.w3.org/1999/xlink"
	 x="0px" y="0px" width="16px" height="16px" viewBox="0 0 16 16" xml:space="preserve">
<path fill-rule="evenodd" fill="#FFFFFF" d="M7.01,2C4.25,2,2,4.25,2,7.01c0,2.77,2.25,5.01,5.01,5.01c2.77,0,5.01-2.24,5.01-5.01
	C12.02,4.25,9.779,2,7.01,2z M15.561,15.561c-0.59,0.59-1.541,0.59-2.131,0l-2.65-2.65C9.689,13.609,8.4,14.02,7.01,14.02
	C3.14,14.02,0,10.88,0,7.01C0,3.14,3.14,0,7.01,0c3.87,0,7.01,3.14,7.01,7.01c0,1.39-0.41,2.68-1.109,3.77l2.65,2.66
	C16.15,14.02,16.15,14.971,15.561,15.561z"/>
</svg>
