<?xml version="1.0" encoding="utf-8"?>
<!-- Generator: Adobe Illustrator 16.0.0, SVG Export Plug-In . SVG Version: 6.00 Build 0)  -->
<svg version="1.2" baseProfile="tiny" id="Capa_1" xmlns="http://www.w3.org/2000/svg" xmlns:xlink="http://www.w3.org/1999/xlink"
	 x="0px" y="0px" width="17px" height="19px" viewBox="0 0 17 19" xml:space="preserve">
<polygon fill="none" points="8.5,10.59 11.2,13.45 12.229,12.359 10,10 10.472,9.5 10,9 12.229,6.64 11.2,5.55 8.5,8.41 5.8,5.55 
	4.771,6.64 7,9 6.528,9.5 7,10 4.771,12.359 5.8,13.45 "/>
<polygon fill="#333333" points="4.771,6.64 4.3,7.14 6.528,9.5 7,9 "/>
<polygon fill="#333333" points="10.472,9.5 12.7,7.14 12.229,6.64 10,9 "/>
<path fill="#333333" d="M8.5,1c4.53,0,8.229,3.764,8.477,8.5C16.984,9.333,17,9.169,17,9c0-4.97-3.811-9-8.5-9C3.81,0,0,4.03,0,9
	c0,0.169,0.015,0.333,0.024,0.5C0.271,4.764,3.969,1,8.5,1z"/>
<polygon fill="#333333" points="5.8,14.45 8.5,11.59 11.2,14.45 12.7,12.859 12.229,12.359 11.2,13.45 8.5,10.59 5.8,13.45 
	4.771,12.359 4.3,12.859 "/>
<polygon fill="#C6C6C6" points="12.229,12.359 12.7,11.859 10.472,9.5 10,10 "/>
<path fill="#C6C6C6" d="M8.5,18c-4.531,0-8.229-3.764-8.476-8.5C0.015,9.667,0,9.831,0,10c0,4.971,3.81,9,8.5,9
	c4.689,0,8.5-4.029,8.5-9c0-0.169-0.016-0.333-0.023-0.5C16.729,14.236,13.03,18,8.5,18z"/>
<polygon fill="#C6C6C6" points="6.528,9.5 4.3,11.859 4.771,12.359 7,10 "/>
<polygon fill="#C6C6C6" points="8.5,8.41 11.2,5.55 12.229,6.64 12.7,6.14 11.2,4.55 8.5,7.41 5.8,4.55 4.3,6.14 4.771,6.64 
	5.8,5.55 "/>
<path fill="#555555" d="M8.5,18c4.53,0,8.229-3.764,8.477-8.5C16.729,4.764,13.03,1,8.5,1C3.969,1,0.271,4.764,0.024,9.5
	C0.271,14.236,3.969,18,8.5,18z M4.3,11.859L6.528,9.5L4.3,7.14l0.472-0.5L4.3,6.14l1.5-1.59l2.7,2.86l2.7-2.86l1.5,1.59l-0.472,0.5
	l0.472,0.5L10.472,9.5l2.229,2.359l-0.472,0.5l0.472,0.5l-1.5,1.591l-2.7-2.86l-2.7,2.86l-1.5-1.591l0.472-0.5L4.3,11.859z"/>
</svg>
