<?xml version="1.0" encoding="utf-8"?>
<!-- Generator: Adobe Illustrator 16.0.0, SVG Export Plug-In . SVG Version: 6.00 Build 0)  -->
<svg version="1.2" baseProfile="tiny" id="Capa_1" xmlns="http://www.w3.org/2000/svg" xmlns:xlink="http://www.w3.org/1999/xlink"
	 x="0px" y="0px" width="16px" height="13px" viewBox="0 0 16 13" xml:space="preserve">
<g>
	<path fill="#FFFFFF" d="M15.05,0.14C14.85,0.05,14.63,0,14.4,0H1.6C1.37,0,1.15,0.05,0.95,0.14L8,8.5L15.05,0.14z"/>
	<path fill="#FFFFFF" d="M8,11L5.74,8.32l-4.55,4.619C1.32,12.98,1.46,13,1.6,13h12.8c0.14,0,0.279-0.02,0.41-0.061L10.26,8.32L8,11
		z"/>
	<path fill="#FFFFFF" d="M0,1.52v0.1v9.76c0,0.14,0.02,0.28,0.06,0.41L4.7,7.08L0,1.52z"/>
	<path fill="#FFFFFF" d="M11.3,7.08l4.64,4.71C15.98,11.66,16,11.52,16,11.38V1.62v-0.1L11.3,7.08z"/>
</g>
</svg>
