<?xml version="1.0" encoding="utf-8"?>
<!-- Generator: Adobe Illustrator 16.0.0, SVG Export Plug-In . SVG Version: 6.00 Build 0)  -->
<svg version="1.2" baseProfile="tiny" id="Capa_1" xmlns="http://www.w3.org/2000/svg" xmlns:xlink="http://www.w3.org/1999/xlink"
	 x="0px" y="0px" width="18px" height="18px" viewBox="0 0 18 18" xml:space="preserve">
<path fill-rule="evenodd" fill="#0E76A8" d="M14.621,14.62h-2.246v-4.5c0-0.62-0.508-1.12-1.123-1.12c-0.627,0-1.134,0.5-1.134,1.12
	v4.5H7.872V6.75h2.246v1.4c0.468-0.64,1.173-1.4,1.969-1.4c1.401,0,2.534,1.26,2.534,2.81V14.62z M5.626,5.62
	c-0.627,0-1.124-0.5-1.124-1.12s0.497-1.12,1.124-1.12c0.615,0,1.123,0.5,1.123,1.12S6.241,5.62,5.626,5.62z M6.749,14.62H4.502
	V6.75h2.247V14.62z M14.97,0H3.021C1.362,0,0,1.36,0,3.02v11.96C0,16.641,1.362,18,3.021,18H14.97c1.669,0,3.03-1.359,3.03-3.02
	V3.02C18,1.36,16.639,0,14.97,0z"/>
</svg>
