<?xml version="1.0" encoding="utf-8"?>
<!-- Generator: Adobe Illustrator 16.0.0, SVG Export Plug-In . SVG Version: 6.00 Build 0)  -->
<svg version="1.2" baseProfile="tiny" id="Capa_1" xmlns="http://www.w3.org/2000/svg" xmlns:xlink="http://www.w3.org/1999/xlink"
	 x="0px" y="0px" width="155px" height="70px" viewBox="0 0 155 70" xml:space="preserve">
<g>
	<path fill="#6F7073" d="M1.67,16.6c0-10.87,3.69-16.1,15.36-16.1h22.32c10.6,0,13.51,4.93,13.51,10.69v3.69h-5.11v-1.96
		c0-7.31-4.53-7.67-9.89-7.67H17.62C12.03,5.25,7.5,6.92,7.5,14.4v16.16c0,7.49,4.53,9.15,10.12,9.15h20.42
		c7.86,0,10.12-1.66,10.12-7.49v-2.67h5.48v2.91c0,7.78-2.5,12-14.59,12H17.03c-11.67,0-15.36-5.229-15.36-16.1V16.6z"/>
	<polygon fill="#6F7073" points="69.26,25.51 69.26,39.23 103.109,39.23 103.109,43.99 63.43,43.99 63.43,0.98 69.26,0.98 
		69.26,20.76 	"/>
	<polygon fill="#6F7073" points="151.109,5.74 151.109,0.99 117.29,0.99 111.41,0.99 111.41,43.99 117.24,43.99 117.24,43.95 
		151.109,43.95 151.109,39.2 117.24,39.2 117.24,24.2 151.109,24.2 151.109,19.45 117.24,19.45 117.279,5.74 	"/>
	<path fill="#19161B" d="M153.54,61.46c0,1.16-0.95,2.11-2.12,2.11H2.11C0.95,63.57,0,62.62,0,61.46V49.3
		c0-1.159,0.95-2.11,2.11-2.11h149.31c1.17,0,2.12,0.951,2.12,2.11V61.46z"/>
	<path fill="#9A9A9C" d="M12.41,53.41c-0.68-0.7-1.61-1.131-2.59-1.131c-1.89,0-3.42,1.641-3.42,3.511c0,1.86,1.54,3.5,3.44,3.5
		c0.96,0,1.89-0.45,2.57-1.13v1.17c-0.73,0.529-1.63,0.83-2.53,0.83c-2.4,0-4.42-1.939-4.42-4.34c0-2.43,1.99-4.41,4.42-4.41
		c0.94,0,1.78,0.27,2.53,0.83V53.41z"/>
	<polygon fill="#FFFFFF" points="16.41,59.141 18.75,59.141 18.75,60.02 15.47,60.02 15.47,51.55 16.41,51.55 	"/>
	<polygon fill="#FFFFFF" points="21.15,51.55 25.55,51.55 25.55,52.43 22.09,52.43 22.09,54.939 25.45,54.939 25.45,55.82 
		22.09,55.82 22.09,59.141 25.55,59.141 25.55,60.02 21.15,60.02 	"/>
	<polygon fill="#FFFFFF" points="31.27,58.01 33.69,51.55 34.71,51.55 31.27,60.52 27.83,51.55 28.86,51.55 	"/>
	<polygon fill="#FFFFFF" points="37.1,51.55 41.5,51.55 41.5,52.43 38.04,52.43 38.04,54.939 41.4,54.939 41.4,55.82 38.04,55.82 
		38.04,59.141 41.5,59.141 41.5,60.02 37.1,60.02 	"/>
	<polygon fill="#FFFFFF" points="45.51,59.141 47.85,59.141 47.85,60.02 44.57,60.02 44.57,51.55 45.51,51.55 	"/>
	<polygon fill="#9A9A9C" points="50.25,51.55 54.65,51.55 54.65,52.43 51.19,52.43 51.19,54.939 54.55,54.939 54.55,55.82 
		51.19,55.82 51.19,59.141 54.65,59.141 54.65,60.02 50.25,60.02 	"/>
	<polygon fill="#9A9A9C" points="57.22,51.55 58.3,51.55 60.04,54.74 61.77,51.55 62.85,51.55 60.55,55.641 63.06,60.02 
		61.98,60.02 60.04,56.54 58.09,60.02 57.01,60.02 59.52,55.641 	"/>
	<polygon fill="#9A9A9C" points="65.53,51.55 69.92,51.55 69.92,52.43 66.47,52.43 66.47,54.939 69.82,54.939 69.82,55.82 
		66.47,55.82 66.47,59.141 69.92,59.141 69.92,60.02 65.53,60.02 	"/>
	<path fill="#9A9A9C" d="M79.46,53.41c-0.67-0.7-1.61-1.131-2.59-1.131c-1.89,0-3.41,1.641-3.41,3.511c0,1.86,1.54,3.5,3.44,3.5
		c0.95,0,1.89-0.45,2.56-1.13v1.17c-0.729,0.529-1.63,0.83-2.53,0.83c-2.4,0-4.42-1.939-4.42-4.34c0-2.43,1.99-4.41,4.42-4.41
		c0.94,0,1.78,0.27,2.53,0.83V53.41z"/>
	<path fill="#9A9A9C" d="M83.439,56.59c0,0.631-0.02,1.35,0.371,1.891c0.379,0.51,1.1,0.81,1.709,0.81c0.61,0,1.271-0.28,1.67-0.761
		c0.451-0.539,0.41-1.27,0.41-1.939v-5.04h0.95v5.3c0,0.92-0.069,1.65-0.739,2.351c-0.59,0.63-1.431,0.96-2.291,0.96
		c-0.789,0-1.609-0.301-2.189-0.86c-0.74-0.71-0.83-1.479-0.83-2.45v-5.3h0.939V56.59z"/>
	<polygon fill="#9A9A9C" points="93.939,60.02 92.99,60.02 92.99,52.43 90.95,52.43 90.95,51.55 96.01,51.55 96.01,52.43 
		93.939,52.43 	"/>
	<rect x="98.46" y="51.55" fill="#9A9A9C" width="0.95" height="8.47"/>
	<polygon fill="#9A9A9C" points="105.24,58.01 107.66,51.55 108.68,51.55 105.24,60.52 101.8,51.55 102.82,51.55 	"/>
	<polygon fill="#9A9A9C" points="111.07,51.55 115.471,51.55 115.471,52.43 112.01,52.43 112.01,54.939 115.37,54.939 115.37,55.82 
		112.01,55.82 112.01,59.141 115.471,59.141 115.471,60.02 111.07,60.02 	"/>
	<path fill="#F0941F" d="M125.01,53.41c-0.68-0.7-1.609-1.131-2.59-1.131c-1.891,0-3.42,1.641-3.42,3.511c0,1.86,1.54,3.5,3.439,3.5
		c0.961,0,1.891-0.45,2.57-1.13v1.17c-0.74,0.529-1.64,0.83-2.539,0.83c-2.391,0-4.41-1.939-4.41-4.34c0-2.43,1.989-4.41,4.41-4.41
		c0.949,0,1.779,0.27,2.539,0.83V53.41z"/>
	<polygon fill="#F0941F" points="129.01,59.141 131.35,59.141 131.35,60.02 128.07,60.02 128.07,51.55 129.01,51.55 	"/>
	<path fill="#F0941F" d="M134.67,56.59c0,0.631-0.02,1.35,0.37,1.891c0.37,0.51,1.09,0.81,1.71,0.81c0.609,0,1.27-0.28,1.66-0.761
		c0.449-0.539,0.42-1.27,0.42-1.939v-5.04h0.939v5.3c0,0.92-0.06,1.65-0.74,2.351c-0.579,0.63-1.43,0.96-2.279,0.96
		c-0.8,0-1.62-0.301-2.189-0.86c-0.75-0.71-0.84-1.479-0.84-2.45v-5.3h0.949V56.59z"/>
	<path fill-rule="evenodd" fill="#F0941F" d="M142.91,51.55h1.4c1.539,0,2.83,0.57,2.83,2.29c0,0.689-0.261,1.27-0.83,1.65
		c1.01,0.25,1.609,1.16,1.609,2.17c0,1.68-1.359,2.359-3.04,2.359h-1.97V51.55z M143.859,55.279h0.361
		c1.069,0,1.979-0.119,1.979-1.439c0-1.279-0.81-1.41-1.97-1.41h-0.371V55.279z M143.859,59.141h0.94
		c1.06,0,2.171-0.261,2.171-1.551c0-1.311-1.261-1.5-2.291-1.5h-0.82V59.141z"/>
	<rect y="69.939" width="155" height="0.561"/>
</g>
</svg>
