<?xml version="1.0" encoding="utf-8"?>
<!-- Generator: Adobe Illustrator 16.0.0, SVG Export Plug-In . SVG Version: 6.00 Build 0)  -->
<svg version="1.2" baseProfile="tiny" id="Capa_1" xmlns="http://www.w3.org/2000/svg" xmlns:xlink="http://www.w3.org/1999/xlink"
	 x="0px" y="0px" width="130px" height="60px" viewBox="0 0 130 60" xml:space="preserve">
<g>
	<path fill="#6F7073" d="M1.4,14.84C1.4,5.83,4.5,1.5,14.28,1.5H33c8.89,0,11.34,4.09,11.34,8.86v3.05h-4.3v-1.62
		c0-6.06-3.79-6.35-8.28-6.35H14.78c-4.69,0-8.49,1.38-8.49,7.58v13.39c0,6.199,3.8,7.58,8.49,7.58h17.13
		c6.59,0,8.48-1.381,8.48-6.2v-2.22h4.6v2.41c0,6.45-2.1,9.95-12.24,9.95H14.28C4.5,37.93,1.4,33.59,1.4,24.59V14.84z"/>
	<polygon fill="#6F7073" points="58.09,22.22 58.09,33.59 86.48,33.59 86.48,37.529 53.2,37.529 53.2,1.9 58.09,1.9 58.09,18.29 	
		"/>
	<polygon fill="#6F7073" points="126.74,5.84 126.74,1.9 98.37,1.9 93.439,1.9 93.439,37.529 98.33,37.529 98.33,37.5 126.74,37.5 
		126.74,33.57 98.33,33.57 98.33,21.14 126.74,21.14 126.74,17.2 98.33,17.2 98.359,5.84 	"/>
	<path fill="#19161B" d="M128.77,52.01c0,0.961-0.789,1.75-1.77,1.75H1.77C0.79,53.76,0,52.971,0,52.01v-10.07
		c0-0.969,0.79-1.75,1.77-1.75H127c0.98,0,1.77,0.781,1.77,1.75V52.01z"/>
	<path fill="#9A9A9C" d="M10.41,45.34c-0.57-0.58-1.35-0.93-2.17-0.93c-1.59,0-2.87,1.35-2.87,2.9c0,1.539,1.29,2.899,2.89,2.899
		c0.8,0,1.58-0.37,2.15-0.931v0.971c-0.62,0.43-1.37,0.68-2.13,0.68c-2,0-3.7-1.6-3.7-3.59c0-2.01,1.67-3.66,3.7-3.66
		c0.8,0,1.5,0.221,2.13,0.69V45.34z"/>
	<polygon fill="#FFFFFF" points="13.77,50.09 15.73,50.09 15.73,50.811 12.98,50.811 12.98,43.8 13.77,43.8 	"/>
	<polygon fill="#FFFFFF" points="17.74,43.8 21.43,43.8 21.43,44.529 18.53,44.529 18.53,46.609 21.34,46.609 21.34,47.34 
		18.53,47.34 18.53,50.09 21.43,50.09 21.43,50.811 17.74,50.811 	"/>
	<polygon fill="#FFFFFF" points="26.23,49.15 28.26,43.8 29.12,43.8 26.23,51.23 23.34,43.8 24.2,43.8 	"/>
	<polygon fill="#FFFFFF" points="31.12,43.8 34.8,43.8 34.8,44.529 31.91,44.529 31.91,46.609 34.72,46.609 34.72,47.34 
		31.91,47.34 31.91,50.09 34.8,50.09 34.8,50.811 31.12,50.811 	"/>
	<polygon fill="#FFFFFF" points="38.17,50.09 40.13,50.09 40.13,50.811 37.38,50.811 37.38,43.8 38.17,43.8 	"/>
	<polygon fill="#9A9A9C" points="42.14,43.8 45.83,43.8 45.83,44.529 42.94,44.529 42.94,46.609 45.75,46.609 45.75,47.34 
		42.94,47.34 42.94,50.09 45.83,50.09 45.83,50.811 42.14,50.811 	"/>
	<polygon fill="#9A9A9C" points="47.99,43.8 48.9,43.8 50.35,46.439 51.8,43.8 52.71,43.8 50.79,47.189 52.89,50.811 51.98,50.811 
		50.35,47.93 48.72,50.811 47.82,50.811 49.92,47.189 	"/>
	<polygon fill="#9A9A9C" points="54.96,43.8 58.64,43.8 58.64,44.529 55.75,44.529 55.75,46.609 58.56,46.609 58.56,47.34 
		55.75,47.34 55.75,50.09 58.64,50.09 58.64,50.811 54.96,50.811 	"/>
	<path fill="#9A9A9C" d="M66.641,45.34c-0.561-0.58-1.341-0.93-2.17-0.93c-1.58,0-2.86,1.35-2.86,2.9c0,1.539,1.29,2.899,2.88,2.899
		c0.81,0,1.59-0.37,2.15-0.931v0.971c-0.61,0.43-1.361,0.68-2.121,0.68c-2.01,0-3.7-1.6-3.7-3.59c0-2.01,1.67-3.66,3.7-3.66
		c0.79,0,1.49,0.221,2.121,0.69V45.34z"/>
	<path fill="#9A9A9C" d="M69.98,47.98c0,0.52-0.01,1.109,0.319,1.56c0.31,0.431,0.91,0.67,1.431,0.67c0.51,0,1.069-0.229,1.399-0.62
		c0.37-0.449,0.341-1.061,0.341-1.609V43.8h0.799v4.39c0,0.761-0.06,1.371-0.629,1.94c-0.49,0.53-1.19,0.8-1.91,0.8
		c-0.67,0-1.36-0.25-1.84-0.709c-0.621-0.591-0.701-1.23-0.701-2.031V43.8h0.791V47.98z"/>
	<polygon fill="#9A9A9C" points="78.79,50.811 77.99,50.811 77.99,44.529 76.279,44.529 76.279,43.8 80.52,43.8 80.52,44.529 
		78.79,44.529 	"/>
	<rect x="82.58" y="43.8" fill="#9A9A9C" width="0.79" height="7.011"/>
	<polygon fill="#9A9A9C" points="88.27,49.15 90.3,43.8 91.15,43.8 88.27,51.23 85.38,43.8 86.24,43.8 	"/>
	<polygon fill="#9A9A9C" points="93.16,43.8 96.84,43.8 96.84,44.529 93.95,44.529 93.95,46.609 96.76,46.609 96.76,47.34 
		93.95,47.34 93.95,50.09 96.84,50.09 96.84,50.811 93.16,50.811 	"/>
	<path fill="#F0941F" d="M104.84,45.34c-0.561-0.58-1.35-0.93-2.17-0.93c-1.58,0-2.859,1.35-2.859,2.9
		c0,1.539,1.289,2.899,2.879,2.899c0.801,0,1.59-0.37,2.15-0.931v0.971c-0.609,0.43-1.369,0.68-2.119,0.68
		c-2.011,0-3.711-1.6-3.711-3.59c0-2.01,1.67-3.66,3.711-3.66c0.789,0,1.489,0.221,2.119,0.69V45.34z"/>
	<polygon fill="#F0941F" points="108.2,50.09 110.16,50.09 110.16,50.811 107.41,50.811 107.41,43.8 108.2,43.8 	"/>
	<path fill="#F0941F" d="M112.95,47.98c0,0.52-0.021,1.109,0.31,1.56c0.311,0.431,0.91,0.67,1.43,0.67c0.511,0,1.07-0.229,1.4-0.62
		c0.381-0.449,0.35-1.061,0.35-1.609V43.8h0.791v4.39c0,0.761-0.061,1.371-0.621,1.94c-0.489,0.53-1.199,0.8-1.92,0.8
		c-0.67,0-1.359-0.25-1.84-0.709c-0.619-0.591-0.689-1.23-0.689-2.031V43.8h0.79V47.98z"/>
	<path fill-rule="evenodd" fill="#F0941F" d="M119.859,43.8h1.17c1.301,0,2.381,0.47,2.381,1.9c0,0.569-0.221,1.05-0.7,1.37
		c0.851,0.199,1.351,0.949,1.351,1.789c0,1.4-1.141,1.951-2.551,1.951h-1.65V43.8z M120.66,46.891h0.3c0.89,0,1.66-0.101,1.66-1.19
		c0-1.06-0.681-1.171-1.649-1.171h-0.311V46.891z M120.66,50.09h0.79c0.88,0,1.819-0.22,1.819-1.29c0-1.079-1.06-1.239-1.93-1.239
		h-0.68V50.09z"/>
	<rect y="59.029" width="130" height="0.471"/>
</g>
</svg>
