<?xml version="1.0" encoding="utf-8"?>
<!-- Generator: Adobe Illustrator 16.0.0, SVG Export Plug-In . SVG Version: 6.00 Build 0)  -->
<svg version="1.2" baseProfile="tiny" id="Capa_1" xmlns="http://www.w3.org/2000/svg" xmlns:xlink="http://www.w3.org/1999/xlink"
	 x="0px" y="0px" width="34px" height="34px" viewBox="0 0 34 34" xml:space="preserve">
<circle fill-rule="evenodd" fill="#FFFFFF" cx="17" cy="16" r="13"/>
<g>
	<path fill="#EA9A00" d="M17,9.66c-1.71,0-3.09,1.39-3.09,3.09v2.71h6.18v-2.71C20.09,11.05,18.71,9.66,17,9.66z"/>
	<path fill="#EA9A00" d="M18.54,19.7c0-0.851-0.69-1.54-1.54-1.54s-1.54,0.689-1.54,1.54c0,0.55,0.28,1.03,0.7,1.3l-0.32,1.99
		c0,0.32,0.26,0.57,0.58,0.57h1.16c0.32,0,0.58-0.25,0.58-0.57L17.84,21C18.26,20.73,18.54,20.25,18.54,19.7z"/>
	<path fill-rule="evenodd" fill="#EA9A00" d="M24.721,24.721c0,0.859-0.691,1.549-1.541,1.549H10.82c-0.85,0-1.54-0.689-1.54-1.549
		V17c0-0.85,0.69-1.54,1.54-1.54h1.16v-2.71c0-2.77,2.25-5.02,5.02-5.02c2.77,0,5.02,2.25,5.02,5.02v2.71h1.16
		c0.85,0,1.541,0.69,1.541,1.54V24.721z M17,0C7.61,0,0,7.61,0,17c0,9.391,7.61,17,17,17c9.391,0,17-7.609,17-17
		C34,7.61,26.391,0,17,0z"/>
</g>
</svg>
