<?xml version="1.0" encoding="utf-8"?>
<!-- Generator: Adobe Illustrator 16.0.0, SVG Export Plug-In . SVG Version: 6.00 Build 0)  -->
<svg version="1.2" baseProfile="tiny" id="Capa_1" xmlns="http://www.w3.org/2000/svg" xmlns:xlink="http://www.w3.org/1999/xlink"
	 x="0px" y="0px" width="18px" height="18px" viewBox="0 0 18 18" xml:space="preserve">
<path fill-rule="evenodd" fill="#00A0D1" d="M18,3.38v11.24c0,0.93-0.328,1.729-0.994,2.39C16.35,17.67,15.555,18,14.63,18H3.379
	c-0.934,0-1.73-0.33-2.385-0.99C0.338,16.35,0,15.55,0,14.62V3.38c0-0.93,0.338-1.73,0.994-2.39C1.649,0.33,2.445,0,3.379,0H14.63
	c0.925,0,1.72,0.33,2.376,0.99C17.672,1.65,18,2.45,18,3.38z M14.999,5.27c0-0.1-0.03-0.19-0.11-0.26
	C14.819,4.94,14.729,4.9,14.63,4.9c-0.039,0-0.099,0.01-0.179,0.05c0.159-0.27,0.229-0.49,0.229-0.65c0-0.1-0.03-0.19-0.11-0.26
	c-0.068-0.08-0.158-0.11-0.258-0.11c-0.06,0-0.119,0.02-0.199,0.05c-0.467,0.27-0.854,0.44-1.144,0.51
	C12.463,4,11.867,3.75,11.171,3.75c-0.766,0-1.411,0.28-1.928,0.85C8.726,5.17,8.468,5.83,8.488,6.59v0.14
	c-0.835-0.11-1.57-0.36-2.196-0.75C5.665,5.59,5.049,5.04,4.453,4.35c-0.07-0.1-0.179-0.14-0.328-0.14
	c-0.199,0-0.357,0.19-0.477,0.59c-0.12,0.39-0.18,0.73-0.18,1.01c0,0.49,0.119,0.94,0.349,1.37C3.707,7.2,3.627,7.24,3.559,7.32
	c-0.061,0.07-0.1,0.16-0.1,0.26c0,0.88,0.318,1.6,0.954,2.17c-0.099,0.06-0.139,0.16-0.139,0.29c0,0.05,0,0.08,0.01,0.11
	c0.109,0.399,0.308,0.75,0.586,1.07c0.279,0.319,0.607,0.549,0.994,0.709c-0.605,0.34-1.252,0.5-1.938,0.5l-0.277-0.01L3.379,12.4
	c-0.099,0-0.188,0.039-0.268,0.109c-0.07,0.07-0.109,0.16-0.109,0.26c0,0.141,0.06,0.24,0.169,0.311
	c0.487,0.37,1.073,0.65,1.76,0.859c0.675,0.211,1.341,0.311,1.988,0.311c1.013,0,1.988-0.23,2.901-0.68
	c1.303-0.62,2.297-1.53,3.002-2.721c0.706-1.2,1.044-2.53,1.034-3.979V6.73c0.208-0.18,0.457-0.42,0.726-0.74
	C14.859,5.67,14.999,5.43,14.999,5.27z"/>
</svg>
