<?xml version="1.0" encoding="utf-8"?>
<!-- Generator: Adobe Illustrator 16.0.0, SVG Export Plug-In . SVG Version: 6.00 Build 0)  -->
<svg version="1.2" baseProfile="tiny" id="Capa_1" xmlns="http://www.w3.org/2000/svg" xmlns:xlink="http://www.w3.org/1999/xlink"
	 x="0px" y="0px" width="18px" height="18px" viewBox="0 0 18 18" xml:space="preserve">
<path fill-rule="evenodd" fill="#444444" d="M13.5,11.25c0-1.35-1.061-1.92-2.59-2.13c-0.631,0.57-1.36,1-1.91,1s-1.28-0.43-1.91-1
	C5.56,9.33,4.5,9.9,4.5,11.25v1.12C4.5,13,5,13.5,5.62,13.5h6.75c0.63,0,1.13-0.5,1.13-1.13V11.25z M9,3.37
	c-1.24,0-2.25,1.01-2.25,2.25C6.75,6.87,7.76,9,9,9s2.25-2.13,2.25-3.38C11.25,4.38,10.24,3.37,9,3.37z M15.359,15.359
	c-3.51,3.521-9.209,3.521-12.719,0c-3.52-3.51-3.52-9.209,0-12.719c3.51-3.52,9.209-3.52,12.719,0
	C18.88,6.15,18.88,11.85,15.359,15.359z"/>
</svg>
